<?xml version="1.0" encoding="UTF-8"?>
<svg version="1.1" xmlns="http://www.w3.org/2000/svg" width="315" height="356" viewBox="-30 -30 385 426">
<path d="M0,0 L27,0 L49,3 L69,8 L80,12 L97,15 L117,21 L133,28 L151,39 L164,50 L179,65 L193,84 L203,102 L211,123 L215,141 L216,148 L216,184 L212,205 L206,223 L194,246 L182,262 L178,267 L169,283 L159,297 L147,311 L136,322 L119,335 L103,345 L80,356 L73,356 L70,352 L69,333 L67,320 L67,315 L49,314 L29,311 L9,305 L-9,297 L-25,287 L-36,278 L-46,269 L-56,258 L-67,242 L-77,223 L-85,199 L-88,182 L-89,170 L-89,156 L-87,137 L-84,123 L-85,119 L-93,106 L-97,95 L-99,83 L-99,72 L-97,60 L-92,47 L-85,36 L-74,25 L-63,18 L-50,13 L-38,11 L-27,11 L-12,14 L0,19 L6,22 L8,20 L-6,15 L-14,12 L-16,10 L-15,3 L-10,1 Z M7,5 L10,7 L32,10 L49,15 L70,25 L84,35 L96,46 L104,55 L111,65 L120,81 L126,97 L130,115 L131,124 L131,145 L128,164 L123,180 L116,196 L106,211 L95,224 L84,234 L71,243 L56,251 L48,254 L50,258 L57,269 L64,285 L69,302 L74,329 L76,351 L89,346 L106,337 L122,326 L135,315 L148,302 L159,288 L169,272 L177,256 L184,238 L190,213 L192,196 L192,172 L189,149 L183,127 L175,107 L164,87 L152,71 L143,61 L129,47 L113,35 L92,23 L70,14 L51,9 L34,6 L22,5 Z M-3,9 Z M0,10 L3,12 L19,20 L29,28 L37,36 L46,50 L51,62 L54,73 L55,81 L55,94 L52,111 L47,124 L40,135 L32,145 L19,155 L21,160 L28,175 L33,190 L35,199 L36,215 L41,213 L50,206 L57,200 L66,189 L73,179 L81,163 L86,148 L89,131 L89,109 L85,89 L80,75 L73,61 L63,47 L48,32 L35,23 L19,15 L5,10 Z M-42,17 L-56,21 L-67,27 L-77,36 L-83,43 L-91,59 L-93,68 L-93,87 L-89,101 L-83,112 L-78,118 L-79,126 L-82,141 L-83,149 L-83,177 L-80,195 L-75,212 L-68,229 L-59,244 L-50,256 L-38,269 L-25,280 L-10,290 L9,299 L28,305 L32,304 L16,297 L5,291 L-6,283 L-20,271 L-32,257 L-43,239 L-50,224 L-56,204 L-59,183 L-59,165 L-56,144 L-53,135 L-41,138 L-24,138 L-12,135 L2,128 L14,117 L21,107 L26,95 L28,85 L28,70 L24,54 L21,47 L31,44 L35,41 L26,31 L18,25 L11,26 L6,28 L2,27 L-12,20 L-24,17 Z M42,18 L39,20 L51,29 L59,36 L75,35 L71,31 L52,21 Z M103,23 Z M105,24 L110,28 L122,36 L132,44 L140,49 L156,58 L169,68 L178,76 L178,73 L167,61 L157,51 L142,40 L124,30 L109,24 Z M179,76 Z M180,77 Z " fill="#000000" transform="translate(99,0)"/>
<path d="M0,0 L15,0 L28,4 L39,12 L47,22 L51,32 L52,36 L52,54 L48,65 L42,74 L33,82 L23,87 L16,89 L0,89 L-12,85 L-21,79 L-29,71 L-35,59 L-37,50 L-37,41 L-35,30 L-30,20 L-21,10 L-12,4 Z M11,22 L6,27 L5,32 L8,38 L11,40 L18,40 L23,35 L24,30 L21,24 L18,22 Z " fill="#000000" transform="translate(59,30)"/>
</svg>
