<?xml version="1.0" encoding="UTF-8"?>
<svg version="1.1" xmlns="http://www.w3.org/2000/svg" width="400" height="391">
<path d="M0 0 C2.05078125 0.03255208 4.1015625 0.06510417 6.15234375 0.09765625 C6.66796875 1.12890625 7.18359375 2.16015625 7.71484375 3.22265625 C8.26978516 4.32287109 8.26978516 4.32287109 8.8359375 5.4453125 C9.78611218 7.35975941 10.7129751 9.28583782 11.625 11.21875 C20.30753077 29.30222426 32.52767808 45.05849858 45.56787109 60.20996094 C46.7654043 61.63666768 47.9387287 63.08374237 49.10009766 64.54003906 C54.39543172 71.16423573 60.03888576 77.2968268 66.05371094 83.25976562 C67.52646898 84.72178786 68.9881942 86.19423113 70.44921875 87.66796875 C76.68456138 93.9125094 83.2336085 99.61473143 90.15234375 105.09765625 C91.43053164 106.14582575 92.70683983 107.19629561 93.98046875 108.25 C118.3835453 128.77271003 118.3835453 128.77271003 147.81640625 137.34765625 C154.21197399 136.66318077 159.8684111 133.96049872 164.15234375 129.09765625 C170.19184811 120.71748274 172.17999429 113.35110002 172.80859375 103.19921875 C173.15234375 101.09765625 173.15234375 101.09765625 175.15234375 99.09765625 C177.96484375 98.47265625 177.96484375 98.47265625 181.15234375 99.09765625 C185.46071267 104.05199432 187.6154809 110.36222105 189.52734375 116.53515625 C189.81697998 117.45748047 190.10661621 118.37980469 190.4050293 119.33007812 C193.06038496 128.14840213 195.05804502 137.09417605 196.96484375 146.09765625 C197.11177673 146.78890594 197.25870972 147.48015564 197.41009521 148.19235229 C200.76569271 164.11524633 202.56112977 179.45919348 202.52734375 195.72265625 C202.5274646 196.61829285 202.52758545 197.51392944 202.52770996 198.43670654 C202.42560073 251.82439927 202.42560073 251.82439927 193.15234375 261.09765625 C190.34750082 261.33139316 188.48826649 261.24386096 185.890625 260.11328125 C178.73845244 257.46054963 170.29714853 258.25500269 163.27734375 260.97265625 C150.71003107 266.92207555 139.46007259 275.00883312 128.74560547 283.79248047 C127.23434983 285.03047811 125.71123674 286.2539595 124.1875 287.4765625 C118.79682685 291.82387956 113.59219825 296.33377837 108.46875 300.9921875 C104.02843076 305.02816064 99.49596529 308.95517804 94.9296875 312.84765625 C89.37111896 317.58844948 83.84296401 322.33851842 78.46484375 327.28515625 C74.96974486 330.49410669 71.40950535 333.55831462 67.71484375 336.53515625 C62.58487248 340.67577592 57.74769575 345.07032945 52.9140625 349.546875 C48.34063436 353.77098897 43.63563694 357.83197873 38.90234375 361.875 C37.69396427 362.90749808 36.48563225 363.94005171 35.27734375 364.97265625 C34.66866455 365.4924707 34.05998535 366.01228516 33.43286133 366.54785156 C29.89572317 369.57684281 26.40824844 372.64929648 22.96484375 375.78515625 C18.57521592 379.77440343 14.02127441 383.52992374 9.40234375 387.25 C7.13114626 389.05370786 7.13114626 389.05370786 5.15234375 391.09765625 C1.34741482 391.64424995 -0.29795987 391.49241572 -3.453125 389.2265625 C-4.30519531 388.37964844 -5.15726563 387.53273438 -6.03515625 386.66015625 C-6.99633125 385.73061945 -7.95993634 384.8035898 -8.92578125 383.87890625 C-9.41111328 383.4096875 -9.89644531 382.94046875 -10.39648438 382.45703125 C-12.59338132 380.39910356 -14.93280997 378.53659432 -17.28515625 376.66015625 C-22.41512752 372.51953658 -27.25230425 368.12498305 -32.0859375 363.6484375 C-36.65936564 359.42432353 -41.36436306 355.36333377 -46.09765625 351.3203125 C-47.30603573 350.28781442 -48.51436775 349.25526079 -49.72265625 348.22265625 C-50.33133545 347.7028418 -50.94001465 347.18302734 -51.56713867 346.64746094 C-55.10427683 343.61846969 -58.59175156 340.54601602 -62.03515625 337.41015625 C-65.3270783 334.41847465 -68.69356932 331.57241202 -72.16015625 328.78515625 C-77.6163703 324.37226925 -82.73381076 319.65294597 -87.86328125 314.87109375 C-91.45173227 311.52619264 -95.12694849 308.29441408 -98.84765625 305.09765625 C-99.8594783 304.22017118 -100.87118675 303.34255512 -101.8828125 302.46484375 C-133.06220808 272.82751246 -133.06220808 272.82751246 -171.72265625 258.91015625 C-172.93695313 258.89597656 -174.15125 258.88179688 -175.40234375 258.8671875 C-178.72094458 259.08918007 -180.8477632 259.7579492 -183.84765625 261.09765625 C-186.66015625 261.22265625 -186.66015625 261.22265625 -188.84765625 261.09765625 C-191.4962582 255.53634675 -192.8223824 250.20782074 -193.91015625 244.16015625 C-194.07064453 243.32419922 -194.23113281 242.48824219 -194.39648438 241.62695312 C-197.19416182 226.55994325 -198.25669375 211.89321396 -198.22265625 196.59765625 C-198.22211243 195.6732373 -198.2215686 194.74881836 -198.2210083 193.79638672 C-198.18157067 179.17985542 -197.11587048 165.37602228 -193.84765625 151.09765625 C-193.39345293 148.92627781 -192.94173727 146.7543779 -192.4921875 144.58203125 C-190.27383969 134.15821437 -187.70585136 123.92548746 -184.22265625 113.84765625 C-183.94574951 113.04424805 -183.66884277 112.24083984 -183.38354492 111.41308594 C-181.71940022 106.83681113 -179.89845648 102.91716205 -176.84765625 99.09765625 C-173.72265625 98.59765625 -173.72265625 98.59765625 -170.84765625 99.09765625 C-168.11970436 101.82560814 -168.37814514 103.79102588 -167.97265625 107.59765625 C-166.69574763 117.19411568 -164.25365373 125.4832737 -156.84765625 132.09765625 C-150.74548554 136.43933085 -144.30663778 138.30530088 -136.84765625 137.09765625 C-121.1179609 131.73105431 -107.85370503 122.22561581 -94.84765625 112.09765625 C-94.03039062 111.4634375 -93.213125 110.82921875 -92.37109375 110.17578125 C-89.83805137 108.17905077 -87.3395586 106.14549353 -84.84765625 104.09765625 C-83.85894531 103.29585938 -82.87023437 102.4940625 -81.8515625 101.66796875 C-74.19311027 95.34948642 -67.07443336 88.53361162 -60.03515625 81.53515625 C-59.1639917 80.67317627 -58.29282715 79.81119629 -57.39526367 78.9230957 C-51.45563928 72.95522773 -46.10332846 66.66930075 -40.84765625 60.09765625 C-39.77540028 58.81517822 -38.69908765 57.53607146 -37.6171875 56.26171875 C-25.26177209 41.54830581 -12.0610534 24.55810981 -5.03515625 6.53515625 C-2.51504445 0.13293047 -2.51504445 0.13293047 0 0 Z M-71.84765625 116.09765625 C-72.41436035 116.57058105 -72.98106445 117.04350586 -73.56494141 117.53076172 C-80.58627012 123.39818474 -87.49527252 129.39213676 -94.39819336 135.39794922 C-98.89586927 139.30031882 -103.46808511 143.09748978 -108.09375 146.84765625 C-115.52355201 152.91796257 -122.85266037 159.12988213 -130.0234375 165.50390625 C-131.26938828 166.59244569 -132.53917315 167.65414322 -133.828125 168.69140625 C-141.30077997 174.81985056 -149.78902812 184.0973585 -151.28125 193.96484375 C-151.29698081 206.07756632 -149.66023681 219.13880879 -140.84765625 228.09765625 C-140.04070312 228.95617187 -139.23375 229.8146875 -138.40234375 230.69921875 C-132.78295398 236.51072441 -126.82979825 241.75004237 -120.49804688 246.77685547 C-117.12790762 249.47396395 -113.80369855 252.227535 -110.47265625 254.97265625 C-109.37775879 255.87371094 -109.37775879 255.87371094 -108.26074219 256.79296875 C-103.80363854 260.4665584 -99.37405997 264.17006194 -94.97265625 267.91015625 C-90.30130839 271.87934058 -85.59502496 275.80031711 -80.8359375 279.6640625 C-78.61464156 281.47303945 -76.40565165 283.29346126 -74.203125 285.125 C-47.06743143 307.59156912 -22.22347108 325.1100906 14.15234375 323.09765625 C18.93107736 322.42737979 22.79387583 321.1443334 27.15234375 319.09765625 C27.84424805 318.77506836 28.53615234 318.45248047 29.24902344 318.12011719 C41.42560012 312.33921379 52.41843486 305.21347349 63.15234375 297.09765625 C63.76948242 296.63214355 64.38662109 296.16663086 65.02246094 295.68701172 C72.88163321 289.71734902 80.40078549 283.38045326 87.86328125 276.92578125 C91.55528252 273.73810523 95.32364383 270.64977583 99.109375 267.57421875 C103.71817491 263.82328275 108.29956151 260.03916515 112.8828125 256.25708008 C115.99978875 253.6866183 119.11700179 251.11759369 122.265625 248.5859375 C141.52006865 234.12578096 141.52006865 234.12578096 153.15234375 214.09765625 C153.35472656 213.35 153.55710937 212.60234375 153.765625 211.83203125 C155.88227412 202.90466763 156.96272221 193.72244048 152.65234375 185.34765625 C147.44296455 176.93438655 140.65498114 170.4294999 133.15234375 164.09765625 C131.99973642 163.09685239 130.84884768 162.09406751 129.69921875 161.08984375 C123.20405608 155.41910566 116.66240932 149.83314768 109.9609375 144.40625 C106.64935895 141.68421534 103.39921316 138.89625894 100.15234375 136.09765625 C95.15369656 131.78987351 90.09391985 127.57433923 84.96484375 123.421875 C82.95596658 121.76176123 80.98334316 120.08705618 79.02734375 118.3671875 C59.04948332 100.82228315 31.01653555 76.28290141 2.90234375 76.66015625 C2.07025391 76.67062988 1.23816406 76.68110352 0.38085938 76.69189453 C-27.1987624 77.49710004 -51.68526421 99.20945324 -71.84765625 116.09765625 Z " fill="#000000" transform="translate(197.84765625,-0.09765625)"/>
<path d="M0 0 C0.98552353 -0.00241196 1.97104706 -0.00482391 2.98643494 -0.00730896 C5.05455581 -0.00633622 7.1227046 0.00691907 9.19067383 0.03198242 C12.33570711 0.06636103 15.47793465 0.05259164 18.62304688 0.03320312 C20.64454307 0.04010127 22.6660321 0.04977336 24.6875 0.0625 C25.61587173 0.05754013 26.54424347 0.05258026 27.50074768 0.04747009 C34.50016757 0.17229601 41.16977135 1.52133385 46.27734375 6.62890625 C48.24385894 20.93447969 47.42369028 35.84895804 47.41015625 50.25 C47.41083168 52.80575062 47.4118037 55.36150118 47.41305542 57.91725159 C47.41452139 63.24830807 47.41251191 68.57934714 47.40771484 73.91040039 C47.40227804 80.02192094 47.40403694 86.13340808 47.40954125 92.24492782 C47.41467507 98.18921328 47.41406941 104.13348861 47.41115952 110.07777596 C47.41049902 112.57766792 47.41128747 115.07756076 47.41363907 117.57745171 C47.41928331 125.26216658 47.38961038 132.94494475 47.27734375 140.62890625 C47.26413841 141.55201221 47.25093307 142.47511818 47.23732758 143.42619705 C47.18934871 145.92767196 47.11152824 148.42584604 47.01904297 150.92602539 C46.99866565 151.98486388 46.99866565 151.98486388 46.97787666 153.06509304 C46.74137967 157.95397082 45.39669489 160.88682101 42.27734375 164.62890625 C39.2851422 166.7318062 36.75397719 166.89248514 33.14501953 166.93530273 C31.61290329 166.95928383 31.61290329 166.95928383 30.04983521 166.98374939 C28.40288162 166.99179344 28.40288162 166.99179344 26.72265625 167 C25.58835175 167.00902847 24.45404724 167.01805695 23.28536987 167.02735901 C20.88639974 167.04186305 18.48739004 167.05074862 16.08837891 167.05444336 C12.42282315 167.06633978 8.75895053 167.11552738 5.09375 167.16601562 C2.76172696 167.17547992 0.42969359 167.18271492 -1.90234375 167.1875 C-2.99626434 167.20703232 -4.09018494 167.22656464 -5.21725464 167.24668884 C-13.71135944 167.19645619 -13.71135944 167.19645619 -17.39892578 164.21899414 C-23.89111636 156.98263673 -21.93962069 143.41203611 -22.27734375 134.08984375 C-22.31938934 132.93124847 -22.36143494 131.7726532 -22.40475464 130.57894897 C-22.84381634 117.47089149 -22.87554543 104.36800706 -22.84765625 91.25390625 C-22.84643768 89.99361603 -22.84521912 88.73332581 -22.84396362 87.43484497 C-22.82432562 69.97528574 -22.66644128 52.52189279 -22.28515625 35.06640625 C-22.26559875 34.1349176 -22.24604126 33.20342896 -22.22589111 32.24371338 C-22.11953771 27.35200318 -21.9711213 22.46521384 -21.77423096 17.57635498 C-21.72843709 15.84718946 -21.76617407 14.11626343 -21.81591797 12.38720703 C-21.81253825 9.75633944 -21.69437115 8.06220976 -20.72265625 5.62890625 C-14.42753638 0.79564921 -7.69430636 -0.1101236 0 0 Z " fill="#000000" transform="translate(185.72265625,115.37109375)"/>
<path d="M0 0 C0.97161072 -0.0127597 1.94322144 -0.02551941 2.9442749 -0.03866577 C3.98392395 -0.04089142 5.023573 -0.04311707 6.09472656 -0.04541016 C7.71680023 -0.05539536 7.71680023 -0.05539536 9.37164307 -0.06558228 C11.65790103 -0.07569627 13.94418844 -0.08039968 16.23046875 -0.08007812 C19.70916091 -0.08443982 23.18657217 -0.1207427 26.66503906 -0.15869141 C28.89159725 -0.16456226 31.11816143 -0.16852986 33.34472656 -0.17041016 C34.89205475 -0.19196671 34.89205475 -0.19196671 36.47064209 -0.21395874 C44.46335975 -0.16398892 50.62312566 1.45131436 56.79785156 6.66552734 C57.88066406 7.96490234 57.88066406 7.96490234 58.98535156 9.29052734 C59.72785156 10.13615234 60.47035156 10.98177734 61.23535156 11.85302734 C62.97337813 15.26700811 63.29959099 17.03655208 63.56005859 20.77099609 C63.67344574 22.37865845 63.67344574 22.37865845 63.78912354 24.01879883 C65.08786704 45.67287257 65.14398908 67.32757562 65.11572266 89.01171875 C65.11118693 92.51661886 65.11113948 96.02146715 65.11572266 99.52636719 C65.1312193 111.44843118 65.09072708 123.36891238 64.98535156 135.29052734 C64.97561562 136.54225739 64.97561562 136.54225739 64.96568298 137.8192749 C64.92597981 142.71597944 64.86367925 147.61146813 64.76827621 152.50741577 C64.74154828 154.00538143 64.72108516 155.50347472 64.70752335 157.00161743 C64.62678567 165.14536459 64.24346039 172.13852434 59.98535156 179.29052734 C59.44910156 180.19802734 58.91285156 181.10552734 58.36035156 182.04052734 C51.40231421 188.6323522 43.70162462 190.04115046 34.42285156 189.91943359 C33.35091553 189.92184555 32.27897949 189.92425751 31.17456055 189.92674255 C28.92232541 189.92576894 26.67006488 189.91249241 24.41796875 189.88745117 C20.99428007 189.85311688 17.57317436 189.86682752 14.14941406 189.88623047 C11.94888238 189.87933128 9.74835727 189.86965824 7.54785156 189.85693359 C6.537146 189.86189346 5.52644043 189.86685333 4.48510742 189.8719635 C-2.86677097 189.75168854 -10.26991642 188.65002989 -15.93237305 183.57008362 C-21.48936902 177.52026691 -23.47375883 171.59477825 -23.69384766 163.53637695 C-23.72693464 162.6687847 -23.76002163 161.80119246 -23.79411125 160.90730953 C-24.18662989 149.39504956 -24.1588124 137.87430646 -24.14746094 126.35693359 C-24.14813696 123.90233857 -24.14910945 121.44774361 -24.15036011 118.9931488 C-24.15182335 113.88092402 -24.14972734 108.76871686 -24.14501953 103.65649414 C-24.13932617 97.16403326 -24.14260763 90.67161377 -24.148592 84.1791544 C-24.15223757 79.11968179 -24.15104078 74.0602187 -24.1484642 69.00074577 C-24.14780578 66.60939466 -24.14858453 64.21804262 -24.15094376 61.82669258 C-24.15975523 50.38931913 -24.10163249 38.96170382 -23.63525391 27.5324707 C-23.60543489 26.68065751 -23.57561588 25.82884432 -23.54489326 24.95121861 C-23.18811523 17.47816846 -21.61570753 11.73153937 -16.08105469 6.44287109 C-11.14620472 2.49685685 -6.41140954 0.05750382 0 0 Z M-13.01464844 9.29052734 C-14.35396755 12.64649656 -14.11777233 15.70602733 -14.01464844 19.29052734 C-14.05061805 20.64873128 -14.09718129 22.00667817 -14.15185547 23.36425781 C-14.35535858 28.48446757 -14.46958578 33.60500974 -14.57714844 38.72802734 C-14.597995 39.68239685 -14.61884155 40.63676636 -14.64031982 41.62005615 C-15.01829936 59.38436529 -15.12246871 77.1475686 -15.13964844 94.91552734 C-15.14223663 96.13255341 -15.14482483 97.34957947 -15.14749146 98.60348511 C-15.16943134 111.66168644 -15.04293883 124.7010109 -14.56933594 137.75146484 C-14.53059357 138.82087311 -14.4918512 139.89028137 -14.45193481 140.99209595 C-14.32743335 144.09304671 -14.17764751 147.19137089 -14.01464844 150.29052734 C-13.95786926 151.45835754 -13.90109009 152.62618774 -13.84259033 153.82940674 C-13.77320251 154.98785095 -13.7038147 156.14629517 -13.63232422 157.33984375 C-13.54303146 158.91471054 -13.54303146 158.91471054 -13.45193481 160.52139282 C-12.78265034 164.75966511 -11.19801999 166.49537183 -8.01464844 169.29052734 C-5.54486915 170.52541699 -3.87203224 170.43735277 -1.109375 170.4675293 C0.42296783 170.48678215 0.42296783 170.48678215 1.98626709 170.50642395 C3.09455872 170.51381088 4.20285034 170.52119781 5.34472656 170.52880859 C7.05042816 170.54091621 7.05042816 170.54091621 8.79058838 170.55326843 C11.20152253 170.56711832 13.61247637 170.57783641 16.0234375 170.58569336 C19.70643436 170.60289231 23.38853059 170.64677025 27.07128906 170.69091797 C29.41242829 170.70104588 31.75357515 170.70956167 34.09472656 170.71630859 C35.19492126 170.73381668 36.29511597 170.75132477 37.4286499 170.7693634 C43.56355034 170.75200837 47.41078051 170.56078345 51.98535156 166.29052734 C54.38547655 162.69063672 54.42581958 158.90981849 54.60205078 154.71264648 C54.63964949 153.93114007 54.67724819 153.14963366 54.71598625 152.34444523 C55.21088686 140.74938724 55.12907875 129.13960561 55.11816406 117.53662109 C55.11883957 114.97990408 55.11981165 112.42318713 55.12106323 109.86647034 C55.12252831 104.53719403 55.12052244 99.20793517 55.11572266 93.87866211 C55.11028047 87.76653277 55.11204916 81.65443681 55.11754906 75.54230827 C55.12267892 69.59748339 55.12207891 63.65266864 55.11916733 57.70784187 C55.11850644 55.20712339 55.11929672 52.70640404 55.12164688 50.20568657 C55.12725373 42.56627765 55.08733194 34.92925725 54.98535156 27.29052734 C54.97746361 26.39126148 54.96957565 25.49199562 54.96144867 24.56547928 C54.93167567 22.16751777 54.86803305 19.7735036 54.78955078 17.37670898 C54.73914139 15.43992027 54.73914139 15.43992027 54.68771362 13.46400452 C54.24882811 10.12565107 54.24882811 10.12565107 51.60189819 7.92431641 C45.45292427 4.08485633 39.73603937 3.95947571 32.68847656 3.91943359 C31.69966492 3.91040512 30.71085327 3.90137665 29.69207764 3.89207458 C27.60431937 3.8776034 25.51651607 3.86869316 23.42871094 3.86499023 C20.25929963 3.85311706 17.09185127 3.80391897 13.92285156 3.75341797 C11.88640265 3.7439497 9.84994187 3.7367166 7.81347656 3.73193359 C6.40983856 3.70263512 6.40983856 3.70263512 4.97784424 3.67274475 C-1.72256516 3.71795098 -7.60981216 5.12578561 -13.01464844 9.29052734 Z " fill="#000000" transform="translate(178.0146484375,111.70947265625)"/>
</svg>
