<svg xmlns="http://www.w3.org/2000/svg" width="645" height="766.755" viewBox="20.6 26.429 160.25 190.5" overflow="visible">
  <path fill="#844e9e" d="M112.7 28q1.2.8 1.2 2.8V32q0 5.3 4 8.9l5.7 5.3a18 18 0 0 0 5.7 4.4l1.6 1.2 4 .4a6 6 0 0 1 5.3 1.6q4 3.3 9.3 3.3 1.6-1.3 2.4-3.3l.4-.8.4-.8h-.8q-4.8 1.2-8.9-1.2a4 4 0 0 1-1.2-2.8c0-6.5 0-6.5 2.4-9q3.8-3 8.1-3.1 7.7 2.4 12.5 8l3.3 2.9 1.2 2.4 1.6.8q3.3 4 3.6 8.9l-.4 1.6-.4 1.2q-1.2 4.5-3.6 8.5l-2.8 5.3h-.8l-.4.8a11 11 0 0 1-6.5 6.8q-6 1.2-12.1-1.2l1.6 3.7.8.8.8 1.2 1.2 2.4.8.8.4 1.6h.8l1.7 2.8 2.8 3.3 2 2.4 13.7 15.8 2 2 3.3 4q.5 2-1.2 3.7l-3.3 1.6 4.5 13.3c2.4 6 .8 11.3-1.2 17.4-2 3.6-2 3.6-4 4.4l-2-.4-.5.8c-2.8 5.7-5.6 10.5-11.7 13.4h-1.6l-1.2 2.4h-.8l-.4 1.2a11 11 0 0 1-2.9 4.9l-.8.8a75 75 0 0 1-18.2 16.1l-6.8 4.5.4.8v3.6a10 10 0 0 1-5.3 3.2l-.8.4-1.2.4h-1.2c-7.7 2-17 2-24.7 0l-.8-.4q-7.2-1.5-13.7-4.8l-1.6-.8-3.2-1.6-1.3-.4-1.2-.8-2.4-1.3-2-1.2v-.8l-.8-.4-4.9-2.8-.8-.8-.8-.4-1.2-.8-.4-.4v-.8h-.8l-2.4-1.2-.8-.9-.5-.4v-.8l-.8-.4a34 34 0 0 1-11.7-10l-7.7-11-.8-1.2-.4-.8-1.2.8h-4.8q-3.6-2.4-5.3-7.3-2.4-10-1.2-20.6v-.8l1.2-13.7c.4-2.8.8-6.9 3.3-9h.8l-.4-.7q-1.2-2.8 0-4.9l2-3.6.8-1.2 2-3.6h.8l.4-.9 2.4-4.4 1.3-1.6.4-.8.8-2 2.8-4 3.2-5 .8-1.1.8-1.3 2.9-2 2.8.8 2-.4 6-7.7.9-1.2 16.6-23.4 1.6-2.4 1.2-1.2.4-1.2.8-.9h.8l.4-.8 2-3.2 3.3-3.2 2.8-2.9 1.6-1.2 4.4-3.2.9-.4c4.8-2.8 11.7-5.3 17-2"/>
  <path fill="#26142d" d="M98.2 61.5q2.4 2 3.6 5.3.4 2.7-.8 5.6a9 9 0 0 0 6-4l1.7 1.2q2 3.6 2.4 6.9l2.8-3.7c5.7.8 10.5 6.9 13.8 11 10.5 13.3 22.2 34.3 22.2 51.6q-1.2 4.5-3.6 8.1l3.2 1.2c.4 7.7-4.9 15-9.7 20.6q-7.6 8.1-17.8 12.6a10 10 0 0 0 4.5 1.2v2.4a28 28 0 0 1-13.4 12.1h-.8v.8a25 25 0 0 1-20.2-.4l-2.8-1.2-2.4-1.2-7.3-4c-6.9-4.9-6.9-4.9-8-7.7L71 177h-7.7l-1.2-.4-2-.4a5 5 0 0 1 0-4v-.9l.4-2.4-2.4-2.4-1.6-1.3-.4-.8c-5.3-4.3-9-10.3-10.5-17V137q-.4-10.6 2-21.4 2.8.8 5.2 2.4l3.3.8.4-1.6q.7-4.1 2.8-8.5l.4-.8q7.8-21.1 23-37.6c3.3-3.6 10.1-10.1 15.4-8.9"/>
  <path fill="#563068" d="M112.7 28q1.2.8 1.2 2.8V32q0 5.3 4 8.9l5.7 5.3a18 18 0 0 0 5.7 4.4l1.6 1.2 4 .4a6 6 0 0 1 5.3 1.6q4 3.3 9.3 3.3 1.6-1.3 2.4-3.3l.4-.8.4-.8h-.8q-4.8 1.2-8.9-1.2a4 4 0 0 1-1.2-2.8c0-6.5 0-6.5 2.4-9q3.8-3 8.1-3.1 7.7 2.4 12.5 8l3.3 2.9 1.2 2.4 1.6.8q3.3 4 3.6 8.9l-.4 1.6-.4 1.2q-1.2 4.5-3.6 8.5l-2.8 5.3h-.8l-.4.8a11 11 0 0 1-6.5 6.8q-6 1.2-12.1-1.2l1.6 3.7.8.8.8 1.2 1.2 2.4.8.8.4 1.6h.8l1.7 2.8 2.8 3.3 2 2.4 13.7 15.8 2 2 3.3 4q.5 2-1.2 3.7l-3.3 1.6 4.5 13.3c2.4 6 .8 11.3-1.2 17.4-2 3.6-2 3.6-4 4.4l-2-.4-.5.8c-2.8 5.7-5.6 10.5-11.7 13.4h-1.6l-1.2 2.4h-.8l-.4 1.2a11 11 0 0 1-2.9 4.9l-.8.8a75 75 0 0 1-18.2 16.1l-6.8 4.5.4.8v3.6a10 10 0 0 1-5.3 3.2l-.8.4-1.2.4h-1.2c-7.7 2-17 2-24.7 0l-.8-.4q-7.2-1.5-13.7-4.8l-1.6-.8-3.2-1.6-1.3-.4-1.2-.8-2.4-1.3-2-1.2v-.8l-.8-.4-4.9-2.8-.8-.8-.8-.4-1.2-.8-.4-.4v-.8h-.8l-2.4-1.2-.8-.9-.5-.4v-.8l-.8-.4a34 34 0 0 1-11.7-10l-7.7-11-.8-1.2-.4-.8-1.2.8h-4.8q-3.6-2.4-5.3-7.3-2.4-10-1.2-20.6v-.8l1.2-13.7c.4-2.8.8-6.9 3.3-9h.8l-.4-.7q-1.2-2.8 0-4.9l2-3.6.8-1.2 2-3.6h.8l.4-.9 2.4-4.4 1.3-1.6.4-.8.8-2 2.8-4 3.2-5 .8-1.1.8-1.3 2.9-2 2.8.8 2-.4 6-7.7.9-1.2 16.6-23.4 1.6-2.4 1.2-1.2.4-1.2.8-.9h.8l.4-.8 2-3.2 3.3-3.2 2.8-2.9 1.6-1.2 4.4-3.2.9-.4c4.8-2.8 11.7-5.3 17-2M89.6 40.9l-.8.4-4 4.9-2 2.4-5 7.3-3.6 4.8-5.2 8-.8 1.3-.8.8-3.3 4.4-.4 1.7H63l-.8 1.2-.8.8-.4.8q-3.6 6-10 8.5h-1.3l-2.4 1.2-.8 1.6-.8 1.2-.9 1.2-1.2 1.6-2 3.3L40 101l-3.2 4.9-1.6 2.8-2.9 5.2q.5 1.7 2 2.5v4l-1.2.8v.8h-.8l-.8.4h-1.2l-1.2.8q-1.2 6.9-1.2 13.8v20.2l.8 3.2.8-.4q2.8-1.3 5.7-.4 2 .4 2.8 2.8l.4.4 1.2 2.4a62 62 0 0 0 18.6 21.5l1.2.8 4.8 3.6A91 91 0 0 0 83.6 203l1.7.8q10 4.5 21.4 4.5h1.6l9.7-.8v-2.9q0-1.5 1.6-2.4l3.2-2 10.1-6.9a52 52 0 0 0 22.3-27c.8-2.5.8-2.5 2-3.3q2-.3 4 .8l.8.8q2-.3 2-2 1.7-3.2 2-6.8l1.7-3.7 3.2-.4 1.2.4h.8q2.4-8.1-1.6-15.3l-2-6.1-.4-.8q-.7-3 0-6l.4-.9.8-2.4-2.8-3.2-4-4.9-3.7-4-2.4-3.3a111 111 0 0 1-19-29l-.4-.9.8-3.6q4-.8 7.7 1.6 5.6 2.9 10.9 2.5 2-.5 3.2-2.9l.4-.8 1.6-3.2 2.4-4.9c2.5-4 2.5-4 2.9-8.5q-2.9-4.8-7.3-8.4l-.8.4V49q-.4 6-4.9 10a10 10 0 0 1-6.4 2.5l-3.2-.8-.9-.4-6.4-2.4-5.3-1.2q-7.2-2.1-12.5-7.7l-2.8-2A29 29 0 0 1 107 31.2c-6.9 0-13 4.9-17.4 9.7"/>
  <path fill="#020102" d="M112.7 28q1.2.8 1.2 2.8V32q0 5.3 4 8.9l5.7 5.3a18 18 0 0 0 5.7 4.4l1.6 1.2 4 .4a6 6 0 0 1 5.3 1.6q4 3.3 9.3 3.3 1.6-1.3 2.4-3.3l.4-.8.4-.8h-.8q-4.8 1.2-8.9-1.2a4 4 0 0 1-1.2-2.8c0-6.5 0-6.5 2.4-9q3.8-3 8.1-3.1 7.7 2.4 12.5 8l3.3 2.9 1.2 2.4 1.6.8q3.3 4 3.6 8.9l-.4 1.6-.4 1.2q-1.2 4.5-3.6 8.5l-2.8 5.3h-.8l-.4.8a11 11 0 0 1-6.5 6.8q-6 1.2-12.1-1.2l1.6 3.7.8.8.8 1.2 1.2 2.4.8.8.4 1.6h.8l1.7 2.8 2.8 3.3 2 2.4 13.7 15.8 2 2 3.3 4q.5 2-1.2 3.7l-3.3 1.6 4.5 13.3c2.4 6 .8 11.3-1.2 17.4-2 3.6-2 3.6-4 4.4l-2-.4-.5.8c-2.8 5.7-5.6 10.5-11.7 13.4h-1.6l-1.2 2.4h-.8l-.4 1.2a11 11 0 0 1-2.9 4.9l-.8.8a75 75 0 0 1-18.2 16.1l-6.8 4.5.4.8v3.6a10 10 0 0 1-5.3 3.2l-.8.4-1.2.4h-1.2c-7.7 2-17 2-24.7 0l-.8-.4q-7.2-1.5-13.7-4.8l-1.6-.8-3.2-1.6-1.3-.4-1.2-.8-2.4-1.3-2-1.2v-.8l-.8-.4-4.9-2.8-.8-.8-.8-.4-1.2-.8-.4-.4v-.8h-.8l-2.4-1.2-.8-.9-.5-.4v-.8l-.8-.4a34 34 0 0 1-11.7-10l-7.7-11-.8-1.2-.4-.8-1.2.8h-4.8q-3.6-2.4-5.3-7.3-2.4-10-1.2-20.6v-.8l1.2-13.7c.4-2.8.8-6.9 3.3-9h.8l-.4-.7q-1.2-2.8 0-4.9l2-3.6.8-1.2 2-3.6h.8l.4-.9 2.4-4.4 1.3-1.6.4-.8.8-2 2.8-4 3.2-5 .8-1.1.8-1.3 2.9-2 2.8.8 2-.4 6-7.7.9-1.2 16.6-23.4 1.6-2.4 1.2-1.2.4-1.2.8-.9h.8l.4-.8 2-3.2 3.3-3.2 2.8-2.9 1.6-1.2 4.4-3.2.9-.4c4.8-2.8 11.7-5.3 17-2m-28 15L82 46.5l-2 2.8-5.7 7.7-6.8 10.5-9.7 12.9-.8 1.2a15 15 0 0 1-8.1 5.3H48v-1.2h-.8l-1.6 2.4-.9.8-16.1 25.4c-.4 2-.4 2 .4 4l1.6 1.7-.4 1.2H29a6 6 0 0 0-2.8 1.6l-1.7 7.7v1.2l-.8 20.6q-.3 6.4 2.5 13l.4.8q.8 2 2.4 2.4l1.6-.4.8-1.6v-.8l.4-.9h2.4l.9 1.3a68 68 0 0 0 23 26.6L78 206.2l4.4 2 4.5 2a55 55 0 0 0 36.7 1.2l1.2-.8v-1.2l-1.6-1.2-2-1.6.8-.4q2.9-.4 4.9-2.5l1.2-.4 11.3-8.9c7.7-6 17.4-15.3 19-25.4l1.2 3.2v1.6a22 22 0 0 0 9.7-12l.8-5q2.4 1.3 3.2 3.7 4.9-5.7 4.5-13.3l-2.4-8.5-.5-1.2-.8-2q-2-4-2-9l1.6-.7.8-.5 2-.8-3.2-4-4.8-5.3-2.8-2.8-7-8.5q-5.1-6-9.6-12.9l-.4-.8-7.7-13.7 6.5 2.4q4 1.5 7.7 1.6h.8a6 6 0 0 0 5.2-1.6l2-2.8.4-.9c6.1-8.4 6.1-8.4 7.7-18.5a19 19 0 0 0-5.6-7.7l-1.7-2c-3.2-2.9-8-7.7-12.5-7.7q-3.2 0-5.6 2.4l-1.3 4V47q0 1.1.9 2 2.4 1.1 5.2.8l.8-.8-3.2-1.6.4-3.7q2-.3 3.6.4 3.3 2.5 4 6.5-1.1 5.2-5.2 8.5-1.6 1.5-4 .8-4.1-.8-8.5-3.2l-1.6-.4v-.9h-1.2c-8.1-.4-14.2-6.4-19.4-12a15 15 0 0 1-5.3-10.2V32q.4-1.2-.8-2c-8-4.4-20.6 7.3-25.5 13"/>
  <path fill="#623a6d" d="M100.6 57.5a11 11 0 0 1 3.6 5.2v1.6h1.3v-.8h3.6q2.4 2 3.2 4.9l1.2-.4q4.1-.4 7.3 2.4 14.2 12.2 21.4 29.5l4 8.9.5 1.2 3.6 10.1.4 1.6c1.6 5.7 3.2 11.3.8 17q0 1.5 1.2 3.2c1.2 3.7-.4 7.3-1.6 10.5a49 49 0 0 1-19.8 22.6l-1.6.4.4 1.7q.4 4.8-3.2 8l-1.6 2-.9.9c-5.5 6-12.9 9.8-21 10.9a52 52 0 0 1-30.7-14.6l-2-1.2v-.8l-1.2-.4-.8-2v-.8l-.4-.8h-4.5q-3.6.3-6.8-2.4l-.8-2v-1.3l.4-2.4v-2l-3.7-3.7-2.4-2.4v-.8h-.8l-2.8-4-.8-1.2-.8-1.7-.9-1.2q-3.2-6.9-2.4-14.5l.8-15.8v-1.2l.4-3.2.4-1.2q.5-3.3 2-6l3.7-.9 4.8 2.4v-.8l2.9-6.4 1.2-3.7L63 91.4q6-13.7 16.6-24.2l.8-.8c4.4-4.9 13-12.6 20.2-9m-14.1 9.8-1.2.8-2.9 2.8-.8.8a71 71 0 0 0-7.3 8.5l-.4.8a116 116 0 0 0-13.7 26.3l-.4 1.2-1.6 4-.4.8-1.6 5.7-6.5-2.8-2-.4-.4 2.8-.4.8q-2 10.5-1.2 21.4a23 23 0 0 0 1.6 12.1l.4.8a39 39 0 0 0 12.1 14.6l.8.8-.4 3.2v4l3.2.9h7.7v.8q2.4 6 8 9.3l.9.4c4.4 3.2 4.4 3.2 9.3 5.2l2.8 1.6a26 26 0 0 0 20.2 0v-.8l1.2-.4q8.5-3.6 13-12l.4-1.7q-.9-.8-2-.8l-2.9-.8.8-.4a51 51 0 0 0 25.9-26.3q1.2-3.2.8-6.5l-3.2-1.2.8-1.2a19 19 0 0 0 1.2-15.7q-3.3-11.4-8.1-21.9l-.4-1.2q-6.4-13.3-16.6-24.6l-.8-.8a16 16 0 0 0-6.8-5.3l-2 .4-1.3 2.5-1.2.8v-.8q-.8-4.1-3.2-7.3-1.2.3-2 1.6a7 7 0 0 1-4.9 2.4l.4-.8q1.2-3.2-.4-6.9-1.2-2-2.8-3.2c-4.5-.8-8.5 2.8-11.7 5.7"/>
  <path fill="#fdef00" d="M63.4 115.7a8 8 0 0 1 3.7.8q4 4 6 9.3c6.9 11.7 6.9 11.7 17.8 19l6 .8c.5 9.6.5 9.6-2.8 13.7q-2 1.6-4.4 2.4l-.8.4q-4.8 1.6-10.1-.8l-5.3-4c-6-5.3-6.4-17-6.8-24.3l-.4-6.4c-.4-5.3-.4-5.3-2.9-9.7Zm0 0"/>
  <path fill="#fcef00" d="M137.4 115.2h.8l.4 1.7-.8.8c-2.4 3.2-2 8.9-2.4 12.9l-1.7 15.8-.4 1.2a21 21 0 0 1-9.3 13.3l-2.4.4v.8q-5.2 1.6-10.9-.8a10 10 0 0 1-5.2-6.9q-.9-4-.4-8.4l1.2-.4a27 27 0 0 0 18.1-12.6l9.7-15.7 1.3-1.2q.8-.9 2-.9"/>
  <path fill="#a09020" d="M63.4 115.7a8 8 0 0 1 3.7.8q4 4 6 9.3c6.9 11.7 6.9 11.7 17.8 19l6 .8c.5 9.6.5 9.6-2.8 13.7l-1.6 1.2-.8-.4.8-1.2 1.6-4.9v-1.2l-.4-2a23 23 0 0 1-15.3-9.3l-4.9-6.5-.4-1.2-4-6.8 2 19.8q.8 7.6 6 12.5l.5.4c-2.4 0-4-2.4-5.7-4a29 29 0 0 1-4-11.8v-1.6L66.3 127c-.4-5.3-.4-5.3-2.9-10.1Zm0 0"/>
  <path fill="#a09120" d="M137.4 115.2h.8l.4 1.7-.8.8c-2.4 3.2-2 8.9-2.4 12.9l-1.7 15.8-.4 1.2a24 24 0 0 1-9.3 13.3l-.8-.4.8-.8c5.7-4.5 7-10.5 7.7-17.4v-1.2l.8-13.3-.4 1.2q-4.2 7.5-9.7 14.1a21 21 0 0 1-14.5 7.7l.4 3.2v.8l1.2 4v1.3q-2-.4-2.8-2.8l-.8-.8-.8-7.3V146l1.2-.4a27 27 0 0 0 18.1-12.6l9.7-15.7 1.3-1.2q.8-.9 2-.9"/>
  <path fill="#0b0906" d="m139 114 1.6 2-1.6 2.9a25 25 0 0 0-1.6 8.5l-.4 5.6c-1.6 19.8-1.6 19.8-8.5 26.7q-5.7 4.8-13 4.8a19 19 0 0 1-9.6-5.2 19 19 0 0 1-2.5-11v-.7c0-2.5 0-2.5.8-3.3l3.3-.4q9.3-2 14.1-9.3l5.3-8.4.4-.9 6.4-9.6.4-.9q2-2 4.9-.8m-5.7 4-4 7c-4.5 8-9.7 16.5-18.6 19.7l-2.8.9h-1.6l-1.2.4c-.5 6.8-.5 6.8 2.4 12.9a15 15 0 0 0 8.9 4l5.2-.8v-.8h1.2q5.3-2.4 8.1-7.3l2.8-7.6V145q1.7-7.6 2-15.7c.9-10.1.9-10.1 2.9-12.5l-.4-1.7q-3.3 0-4.9 2.9"/>
  <path fill="#0c0a06" d="M65.9 114c4.4 2 6.4 6.9 8.4 11.3v.9h.9l1.6 2.8 5.2 7.7.4.8q6.1 6 14.6 6.8l1.2.4c1.6 3.3.4 9-.4 11.8a11 11 0 0 1-6.5 6.4c-4.4 2-7.3 2-11.7.4q-2.4-.3-4.4-2.4v-.8l-.9-.4A16 16 0 0 1 68 150q-3-11-3.3-22.6l-.4-3.3V123a8 8 0 0 0-2-5.2v-2.9q2-1.1 3.7-.8m-2.5 1.7 1.2 3.6q1.3 2.5 1.3 5.2l.4 1.7v.8l2 18.6q1.2 8.4 7.3 13.7 5.6 4 12 3.2L91 161l1.6-.4a9 9 0 0 0 4-5.3l.5-7.2v-2.4h-1.2q-8.5-.9-14.6-7.3-5.2-7.3-9.3-15c-2.4-4.4-2.4-4.4-6-7.6Zm0 0"/>
  <path fill="#1d0c23" d="m78.4 78.9.4 1.2-.8.8-1.6 2.4-2 3.7Q67.8 99 63 112l-.4 1.2-.4 2.9v1.6l-.8.4-1.6 1.2-.8.8h-.8q3.2-10.5 8-20.6l.5-1.2Q71 87.8 78.4 78.9"/>
  <path fill="#14051b" d="m88.5 68.4.8.4-10.1 10q-.5-1.5 1.2-2.3l1.6-1.7.4-.8 5.7-5.2Zm0 0"/>
  <path fill="#18081e" d="M124.8 85q4 3.2 5.7 7.6l-.8.8-.4-.8-3.6-5.2Zm0 0"/>
  <path fill="#17061e" d="m107.5 72.8.8 1.6v3.3a8 8 0 0 1-3.2-4Zm0 0"/>
  <path fill="#17081c" d="m78.4 78.9.4 1.2-.8.8-1.6 2.4-3.3 4.5-.4-.8Zm0 0"/>
  <path fill="#e1d00d" d="m68.7 126.2 2 3.6-1.2-.4v2.4h-.4Zm0 0"/>
  <path fill="#633681" d="m119.6 201.7.8.4-.8.8q-1.6 1.3-1.6 3.3h-.4v-2.5Zm0 0"/>
  <path fill="#eedf06" d="M132.5 127.4h.4v2.8l-1.6-.4Zm0 0"/>
</svg>