<svg xmlns="http://www.w3.org/2000/svg" fill-rule="evenodd" stroke-linecap="round" stroke-linejoin="round" stroke-miterlimit="1.5" clip-rule="evenodd" viewBox="39.951 25.243 140.25 169.75" height="679" width="561" overflow="visible">
  <path fill="#447c36" stroke="#000" stroke-width="2.5" d="M109.77 193.48c-9.67-1.08-14.54-4.98-14.54-4.98-57.06-35.43-54-87-54-87 1.38-77.26 68.66-75 68.77-75s67.39-2.26 68.77 75c0 0 3.06 51.57-54 87 0 0-4.95 3.96-14.77 5z"/>
  <path fill="#68bd46" d="M109.8 178.48c-8.53-.96-12.83-4.4-12.83-4.4-50.32-31.41-47.62-77.1-47.62-77.1C50.57 28.5 109.9 30.5 110 30.5s59.43-2 60.66 66.47c0 0 2.7 45.7-47.63 77.1 0 0-4.37 3.5-13.03 4.43z"/>
  <path fill="#9bcb3c" d="M109.83 162.44c-28.49-11.31-38.6-56.94-38.6-56.94-6.55-47.34 38.77-49 38.77-49h.03c1.37.07 45.19 2.4 38.74 49 0 0-10.15 45.8-38.77 57z"/>
  <path fill="#89c540" d="M50.29 84.49C58.03 28.75 109.9 30.5 110 30.5c.08 0 46.15-1.55 57.95 44.9-15.14 17.16-38 28.1-63.55 28.1a85.3 85.3 0 0 1-54.11-19"/>
  <path fill="#c3d930" d="M70.58 96.74c-.06-24.18 19.52-39.38 38.54-40.2 19.41-.84 38.28 15.07 40.02 34.6-23.41 14.24-53.3 16.29-78.56 5.6"/>
  <path fill="#341a55" stroke="#000" stroke-width="1.99" d="M149.29 87.16s-18.94 5-28.74 31.93c0 0-1.92 7.95.5 10.64 0 0 2.88 5.5 17.6 1.06 0 0 32.73-14.22 27.66-37.24 0 0-1.43-10.41-17.03-6.39"/>
  <path fill="#522e91" d="M126.3 119.9s1.87-32.27 33.03-33.27c0 0 2.48 33.77-33.02 33.27"/>
  <path fill="none" stroke="#000" stroke-width="1.99" d="M149.29 87.16s-18.94 5-28.74 31.93c0 0-1.92 7.95.5 10.64 0 0 2.88 5.5 17.6 1.06 0 0 32.73-14.22 27.66-37.24 0 0-1.43-10.41-17.03-6.39"/>
  <path fill="#341a55" stroke="#000" stroke-width="1.99" d="M71.01 87.16s18.93 5 28.74 31.93c0 0 1.91 7.95-.5 10.64 0 0-2.88 5.5-17.6 1.06 0 0-32.73-14.22-27.66-37.24 0 0 1.43-10.41 17.02-6.39"/>
  <path fill="#522e91" d="M94 119.9s-1.87-32.27-33.03-33.27c0 0-2.48 33.77 33.02 33.27"/>
  <path fill="none" stroke="#000" stroke-width="1.99" d="M71.01 87.16s18.93 5 28.74 31.93c0 0 1.91 7.95-.5 10.64 0 0-2.88 5.5-17.6 1.06 0 0-32.73-14.22-27.66-37.24 0 0 1.43-10.41 17.02-6.39"/>
</svg>
